<svg version="1.1" xmlns="http://www.w3.org/2000/svg" style="display: block;" viewBox="0 0 2048 2048" width="1024" height="1024">
<path transform="translate(0,0)" fill="rgb(255,255,255)" d="M 0 0 L 2048 0 L 2048 2048 L 0 2048 L 0 0 z"/>
<path transform="translate(0,0)" fill="rgb(48,42,53)" d="M 1141.77 85.312 C 1208.26 81.2925 1328.52 118.909 1383.18 156.744 C 1394.18 164.359 1405.64 173.721 1407.97 187.674 C 1408.88 193.11 1407.2 196.255 1404.72 200.985 C 1394.62 220.267 1378.89 239.179 1366.77 257.448 C 1351.29 280.779 1337.57 305.251 1321.13 327.921 C 1339.35 330.395 1355.85 332.611 1372.88 340.007 C 1388.07 369.762 1403.73 399.248 1418.16 429.388 C 1474.87 433.129 1530.44 440.106 1585.87 452.858 C 1598.28 455.712 1613.31 458.347 1624.7 464.03 C 1631.8 467.573 1636.59 476.437 1638.52 483.807 C 1639.97 489.347 1639.1 494.756 1635.96 499.552 C 1630.27 508.228 1619.11 513.692 1610.16 518.376 C 1566.26 541.357 1517.48 553.366 1469.34 563.656 C 1478.95 584.832 1489.67 605.502 1499 626.811 C 1517.48 668.456 1529.89 712.537 1535.84 757.706 C 1536.64 763.851 1539.03 804.702 1541.13 806.224 C 1551.12 813.45 1638.75 786.156 1654.51 782.683 C 1669 779.363 1683.75 777.308 1698.6 776.544 C 1724.35 775.433 1760.2 782.734 1779.53 800.887 C 1795.19 815.586 1814.34 848.782 1814.57 870.527 C 1814.6 874.049 1813.77 877.505 1810.9 879.828 C 1809.6 880.883 1807.52 881.811 1805.82 881.895 C 1800.25 882.171 1780.98 871.062 1774.23 868.735 C 1767.6 866.446 1761.23 865.115 1754.26 864.379 C 1725.99 879.497 1695.73 891.57 1667.02 905.936 C 1620.23 929.348 1574.64 956.01 1525.05 973.208 C 1533.73 980.411 1542.34 987.651 1550.22 995.733 C 1560.08 1005.84 1569.61 1016.97 1577.32 1028.8 C 1591.61 1050.71 1613.59 1100.96 1612.36 1127.35 C 1612.22 1130.29 1611.2 1133.19 1608.7 1134.93 C 1602.8 1139.04 1569.05 1128.79 1560.12 1127.27 C 1550.22 1152.64 1539.3 1176 1525.21 1199.37 C 1526.07 1213.47 1525.99 1228.79 1529.83 1242.42 C 1534.23 1258.03 1546.28 1274.04 1554.82 1287.79 L 1600.18 1359.38 C 1612.5 1378.98 1624.09 1399.02 1636.43 1418.59 C 1650.83 1441.45 1665.71 1463.69 1679.17 1487.17 C 1745.49 1602.96 1793.4 1727.86 1800.67 1862.17 C 1801.94 1885.46 1801.08 1909.07 1800.39 1932.36 C 1825.16 1930.86 1850.36 1929.66 1875.17 1930.59 C 1839.94 1939.19 1803.96 1944.99 1768.56 1952.97 C 1771.12 1928.44 1772.62 1904 1771.96 1879.33 C 1769.18 1774.99 1737.51 1648.79 1694.77 1554.14 C 1682.27 1526.46 1666.08 1499.85 1650.93 1473.54 C 1636.21 1447.97 1621.96 1421.92 1605.46 1397.44 C 1573.28 1349.67 1527.84 1323.06 1471.72 1312.07 C 1465.65 1315.49 1459.6 1318.69 1453.24 1321.55 C 1468.42 1333.14 1478.7 1347.7 1485.98 1365.34 C 1492.44 1380.99 1497.91 1404.15 1490.67 1420.39 C 1488.44 1425.37 1484.78 1429.14 1479.6 1431.01 C 1473.02 1433.39 1465.72 1432.21 1459.53 1429.25 C 1442.33 1421.03 1430.39 1400.54 1424.65 1383.07 C 1418.38 1363.97 1417.9 1346.75 1427.01 1328.52 C 1407.27 1330.97 1387.55 1333.86 1367.67 1334.94 C 1356.78 1335.54 1341.45 1331.95 1331.47 1334.47 C 1316.4 1338.27 1281.87 1359.58 1267.25 1368.37 C 1144.22 1442.32 1069.77 1587.08 1020.24 1716.78 C 1008.7 1747.01 995.715 1778.02 988.058 1809.48 C 981.855 1834.97 980.007 1862.13 976.042 1888.08 C 974.13 1900.61 972.251 1913.23 969.794 1925.66 C 968.546 1931.97 966.558 1938.35 965.706 1944.7 C 965.315 1947.61 964.855 1948.49 966.362 1950.97 C 969.845 1953.19 974.333 1953.47 978.386 1953.73 C 997.351 1954.94 1017 1953.77 1036.02 1953.61 C 1079.14 1953.26 1123.09 1952.42 1166.15 1954.48 C 1156.4 1958.62 1070.88 1962.81 1054.36 1964.1 C 1014.75 1967.28 975.152 1970.71 935.579 1974.38 C 936.759 1956.82 940.433 1938.82 942.981 1921.38 C 947.922 1886.66 953.184 1852 958.766 1817.39 C 962.089 1796.67 964.733 1775.85 968.284 1755.17 C 983.041 1670.12 1000.34 1585.52 1020.16 1501.5 C 1029.81 1461.19 1038.95 1420.88 1051.25 1381.26 C 1051.11 1411.24 1044.46 1442.71 1040.47 1472.48 C 1029.7 1552.75 1018.32 1634.11 1000.26 1713.09 C 1023.56 1647.98 1053.46 1585.43 1089.49 1526.42 C 1122.12 1471.9 1164.82 1414.84 1215.88 1376.19 C 1240.14 1357.83 1266.63 1342.9 1292.89 1327.69 C 1276.23 1323.33 1258.76 1321.18 1241.89 1317.6 C 1211.65 1310.89 1181.58 1303.48 1151.69 1295.38 C 1045.97 1266.3 925.056 1219.44 828.839 1166.44 C 810.444 1156.31 791.99 1145.95 774.248 1134.71 C 760.25 1125.84 746.809 1116.06 732.552 1107.61 C 711.777 1162.07 687.871 1215.28 660.954 1266.98 C 643.814 1300.23 625.16 1332.67 607.807 1365.81 C 540.121 1495.04 468.658 1637.63 432.198 1778.96 C 418.278 1832.91 408.014 1890.12 409.551 1946.04 C 478.759 1946.07 547.77 1942.01 617.03 1943.14 C 593.74 1904.02 558.37 1827.01 562.379 1782.2 C 563.818 1766.12 568.638 1750.03 572.811 1734.49 C 586.117 1686.71 603.609 1640.19 625.085 1595.48 C 658.718 1524.22 732.48 1399.2 792.326 1349.71 C 777.803 1373.8 762.088 1397.08 747.869 1421.38 C 697.431 1507.6 653.043 1598.81 620.981 1693.49 C 611.85 1720.45 600.772 1753.19 596.218 1781.08 C 593.935 1795.06 598.546 1809.9 602.39 1823.25 C 617.782 1875.61 641.985 1924.96 673.96 1969.18 C 660.479 1968.6 647.026 1967.45 633.534 1966.91 C 628.909 1960.78 624.598 1954.37 620.167 1948.1 C 602.636 1951.97 583.869 1952.59 566.002 1953.94 C 535.94 1956.34 505.842 1958.29 475.719 1959.77 C 402.813 1963.8 329.978 1967.69 256.926 1968.11 C 225.996 1968.29 193.002 1969.94 162.497 1964.8 C 184.519 1961.73 207.202 1960.7 229.369 1958.83 C 264.557 1955.86 299.809 1952.55 335.08 1950.8 C 334.393 1875.38 351.257 1798.19 371.25 1725.81 C 397.352 1632.65 429.752 1541.37 468.227 1452.61 C 495.445 1390.39 524.248 1328.89 552.145 1266.97 C 595.78 1170.13 638.117 1070.79 655.455 965.326 C 664.445 910.636 665.984 854.113 662.5 798.87 C 656.796 799.816 650.676 800.723 645.112 798.662 C 638.427 796.184 634.5 791.926 630.29 786.414 C 615.883 767.552 603.417 739.724 591.85 718.567 C 584.24 704.646 574.605 690.374 568.69 675.739 C 566.714 670.851 569.482 666.297 571.42 661.882 C 553.261 648.149 472.274 624.08 446.787 616.346 C 430.931 611.534 412.632 607.678 398.668 598.383 C 393.406 594.88 388.097 590.155 386.904 583.655 C 384.487 570.49 392.544 556.78 399.746 546.342 C 427.818 505.658 466.058 470.495 502.915 437.955 C 602.972 349.615 712.252 275.251 828.272 209.544 C 876.688 182.124 926.371 155.447 977.705 133.868 C 1030.35 111.451 1085.4 95.1584 1141.77 85.312 z"/>
<path transform="translate(0,0)" fill="rgb(255,255,255)" d="M 1218.97 567.19 C 1236.34 565.583 1250.31 571.865 1264.16 581.693 C 1348.09 641.226 1374.17 761.387 1389.94 856.731 C 1380.2 875.247 1368.12 893.692 1355.1 910.053 C 1332.67 938.231 1300.01 965.508 1262.94 969.598 C 1276.43 991.386 1298.26 1011.01 1318.26 1026.72 C 1389.96 1083.04 1449.48 1101.37 1536.1 1122.09 C 1527.64 1152.14 1508.13 1184.78 1489.51 1209.69 C 1477.65 1225.56 1424.83 1280.34 1405.76 1283.06 C 1383.44 1278.52 1361.24 1274.04 1339.25 1268.05 C 1244.68 1242.28 1124.43 1193.64 1048.98 1129.66 C 992.102 1081.43 967.257 1017.98 961.516 945.143 C 952.954 836.509 983.725 711.531 1055.26 627.716 C 1078.33 624.138 1100.77 613.197 1122.29 604.304 C 1154.09 591.161 1186.02 577.196 1218.97 567.19 z"/>
<path transform="translate(0,0)" fill="rgb(48,42,53)" d="M 1165 672.186 C 1171.83 671.215 1178.79 671.525 1185.52 673.101 C 1211.08 679.013 1230.94 700.161 1244.33 721.623 C 1266.37 756.937 1284.83 816.2 1274.92 857.896 C 1273.3 864.729 1270.11 874.918 1263.68 878.553 C 1260.84 880.162 1257.45 880.266 1254.39 879.231 C 1243.14 875.437 1234.35 859.005 1229.77 848.734 C 1220.27 827.411 1209.44 789.205 1218.89 766.44 C 1222.15 758.581 1226.43 754.865 1234.1 751.588 L 1235.47 751.014 C 1235.02 762.921 1235.63 776.545 1241.37 787.257 C 1243.43 791.108 1247.13 795.893 1251.67 796.905 C 1254.27 797.484 1256.64 797.348 1258.9 795.813 C 1261.4 794.119 1262.76 791.433 1263.47 788.585 C 1267.28 773.284 1253.75 751.154 1246.32 738.47 C 1234.2 717.793 1216.07 696.396 1191.69 690.581 C 1178.02 687.321 1164.79 690.629 1153.19 698.129 C 1131.7 712.024 1121.37 735.543 1116.22 759.712 C 1107.97 806.274 1115.7 858.461 1142.39 898.244 C 1172.45 943.066 1198.63 928.415 1240.81 918.26 C 1261.38 913.308 1283.82 911.204 1304.69 915.257 C 1286.76 917.137 1269.16 917.52 1251.35 921.072 C 1237.87 923.761 1224.88 928.65 1211.61 932.179 C 1193.6 936.967 1175.3 936.631 1158.91 926.946 C 1129.95 909.832 1113.04 871.428 1105.09 840.299 C 1094.62 799.286 1092.52 745.218 1115.27 707.625 C 1127.22 687.867 1142.93 677.626 1165 672.186 z"/>
<path transform="translate(0,0)" fill="rgb(255,255,255)" d="M 1149.67 108.445 C 1155.73 108.156 1162.12 108.613 1168.16 109.059 C 1221.45 112.986 1358.73 147.354 1393.62 187.973 C 1381.25 207.424 1366.71 225.521 1353.92 244.721 C 1340.55 264.783 1329.05 285.811 1316.42 306.303 C 1320.84 276.399 1318.43 250.217 1304.25 223.037 C 1290.74 197.137 1265.07 175.965 1237.12 167.398 C 1213.3 160.098 1197.2 166.505 1175.07 174.394 C 1165.06 177.965 1155.09 181.224 1145.71 186.298 C 1120.97 199.564 1102.53 222.138 1094.48 249.028 C 1085.29 280.634 1091.7 314.79 1107.25 343.224 C 1056.87 360.184 1007.29 379.436 958.669 400.919 C 872.336 440.105 789.374 486.328 710.624 539.122 C 666.283 569.203 624.536 604.519 585.357 640.962 C 527.659 618.884 469.467 595.872 409.383 581.004 C 419.046 565.143 432.006 549.894 444.176 535.859 C 490.167 482.82 545.026 436.721 600.139 393.458 C 616.371 380.717 632.273 367.423 648.843 355.128 C 763.607 269.973 912.734 180.758 1047.89 134.056 C 1080.06 122.941 1115.54 110.888 1149.67 108.445 z"/>
<path transform="translate(0,0)" fill="rgb(48,42,53)" d="M 794.958 379.205 C 801.916 378.428 809.475 379.112 815.755 382.394 C 821.824 385.566 825.937 390.992 827.794 397.546 C 830.104 405.981 828.839 414.996 824.296 422.469 C 817.709 433.514 807.62 438.216 795.653 441.132 C 787.466 441.293 779.416 440.343 772.173 436.221 C 766 432.708 761.318 427.072 759.589 420.127 C 757.683 412.467 759.778 404.604 764.009 398.104 C 771.212 387.036 782.522 381.909 794.958 379.205 z"/>
<path transform="translate(0,0)" fill="rgb(255,255,255)" d="M 793.583 386.16 C 799.022 385.817 804.264 385.688 809.433 387.72 C 814.325 389.644 818.277 393.367 820.214 398.287 C 822.437 403.933 821.689 410.474 819.118 415.868 C 815.433 423.602 808.294 429.318 800.148 431.771 C 797.337 432.617 792.379 433.831 789.757 432.369 L 793.563 427.622 L 793.217 426.342 L 791.468 425.955 C 788.349 427.164 788.109 428.883 786.528 431.751 C 784.141 432.545 784.19 432.352 781.871 431.297 C 782.029 427.966 785.31 425.262 787.459 422.708 L 786.775 420.126 L 785 419.471 C 782.551 420.585 781.744 421.771 780.341 423.957 C 779.018 426.02 777.842 427.731 776.154 429.5 L 775.615 428.569 C 776.585 424.415 778.822 421.294 781.098 417.762 L 780.775 416.788 C 778.152 416.539 778.565 418.261 776.117 418.893 L 777.737 414.561 L 776.665 413.148 C 773.587 414.867 773.431 418.471 770.558 420.763 L 769.299 419.149 C 769.336 415.836 770.935 414.329 772.719 411.591 L 771.983 410.408 L 769.645 411.548 L 768.52 409.78 C 768.347 407.977 768.433 406.939 769.085 405.201 C 772.839 395.202 784.331 389.55 793.583 386.16 z"/>
<path transform="translate(0,0)" fill="rgb(255,255,255)" d="M 1021.62 632.384 C 1022.64 632.081 1024.31 631.961 1025.38 631.807 L 1025.78 632.864 L 1020.35 639.768 C 996.402 669.837 977.493 713.51 965.85 750.321 C 933.952 851.163 923.493 975.645 974.001 1072.01 C 1023.21 1165.9 1161.77 1230.36 1257.71 1264.03 C 1293.03 1276.43 1329.12 1285.61 1364.8 1296.74 C 1345.29 1302.09 1327.65 1309.78 1309.66 1318.85 C 1295.67 1314.11 1280.22 1312.4 1265.76 1309.36 C 1241.29 1304.1 1216.89 1298.51 1192.56 1292.59 C 1169.02 1287.52 1145.72 1280.14 1122.68 1273.14 C 1011.77 1239.42 901.708 1194.74 801.554 1136.09 C 779.618 1123.25 757.639 1110.39 737.389 1094.97 C 743.577 1072.26 751.539 1050.42 756.055 1027.21 C 762.619 993.48 763.765 959.079 767.864 925.022 C 778.036 840.503 806.116 707.349 876.392 652.215 C 924.878 646.176 973.292 639.565 1021.62 632.384 z"/>
<path transform="translate(0,0)" fill="rgb(255,255,255)" d="M 1300.09 347.057 C 1320.32 346.97 1339.56 348.804 1358.95 354.812 C 1373.69 378.688 1387.17 404.194 1400.62 428.84 C 1360.72 427.813 1321.13 429.156 1281.77 436.419 C 1200.91 451.344 1123.51 480.033 1048.63 513.487 C 1015.92 528.098 983.115 542.99 951.361 559.597 C 889.131 592.872 829.09 630.087 771.604 671.015 C 728.961 701.368 677.696 739.422 647.946 782.761 C 644.301 778.681 641.576 774.742 638.874 769.998 C 653.21 761.396 665.337 746.746 677.722 735.444 C 691.792 722.606 706.51 710.574 721.287 698.568 C 733.554 688.601 745.769 678.68 758.676 669.541 C 774.252 658.512 793.365 648.135 806.405 634.329 C 760.117 656.174 673.426 728.607 638.518 767.895 C 622.944 742.105 608.694 714.75 594.697 688.055 C 605.025 676.668 613.249 663.718 624.135 652.302 C 628.282 648.123 631.879 644.144 635.167 639.245 L 633.212 640.458 C 615.817 651.031 604.33 667.871 593.072 684.388 C 589.848 679.683 586.987 674.76 584.068 669.863 C 605.591 644.364 632.775 622.916 658.833 602.278 C 685.193 581.006 712.414 560.823 740.427 541.781 C 764.017 526.048 789.023 511.737 813.647 497.701 C 879.467 459.725 947.753 426.196 1018.05 397.336 C 1050.07 383.955 1086.21 368.66 1119.71 360.015 C 1124.58 365.005 1129.35 369.791 1134.89 374.055 C 1112.29 378.97 1090.47 387.801 1068.77 395.714 C 998.616 421.432 930.215 451.708 864.007 486.348 C 856.096 490.476 841.391 496.09 835.103 501.733 C 833.737 502.959 833.569 503.227 833.581 505.067 C 835.765 505.482 836.581 505.56 838.731 504.687 C 844.234 502.453 849.077 498.342 854.42 495.689 C 872.158 486.882 889.689 477.657 907.464 468.921 C 966.846 439.736 1028.61 412.885 1091.3 391.591 C 1106.75 386.342 1122.17 380.842 1137.97 376.71 C 1163.44 388.854 1184.95 396.538 1213.48 393.151 C 1252.44 388.528 1275.68 377.771 1300.09 347.057 z"/>
<path transform="translate(0,0)" fill="rgb(48,42,53)" d="M 824.224 535.229 C 830.793 535.682 836.441 536.888 841.96 540.693 C 847.675 544.633 851.187 550.726 852.128 557.559 C 853.331 566.292 850.243 575.263 844.837 582.097 C 837.011 591.99 827.365 594.726 815.42 595.952 C 808.426 595.534 802.272 594.793 796.141 591.025 C 790.963 587.844 787.23 582.831 786.018 576.835 C 784.429 568.967 786.753 561.427 791.29 554.966 C 799.193 543.715 810.899 537.333 824.224 535.229 z"/>
<path transform="translate(0,0)" fill="rgb(255,255,255)" d="M 825.532 542.329 C 828.711 542.662 831.756 543.18 834.643 544.615 C 839.288 546.925 843.471 550.217 844.946 555.37 C 846.472 560.704 844.92 566.632 842.299 571.366 C 835.739 583.216 824.708 586.689 812.597 590.281 C 815.875 587.011 820.066 581.796 824.389 580.112 C 824.977 579.883 825.579 579.692 826.173 579.482 L 826.698 578.129 L 824.803 576.385 C 817.594 575.807 816.223 583.829 810.595 586.727 C 809.123 587.485 808.447 586.823 806.999 586.345 L 806.986 585.118 C 809.753 582.686 811.897 580.515 813.824 577.351 C 813.99 577.078 814.149 576.802 814.311 576.527 C 815.609 574.955 816.822 573.503 817.791 571.703 L 816.926 570.759 C 811.855 573.432 807.694 582.066 802.454 583 L 800.922 581.875 C 800.894 578.117 810.653 568.315 813.479 564.891 C 809.593 567.646 804.952 572.639 800.601 574.245 C 798.828 574.901 798.163 574.558 796.53 573.921 L 796.34 572.022 C 797.186 570.121 797.947 569.479 799.679 568.445 C 801.006 567.652 801.758 567.17 802.937 566.097 L 799.779 564.221 C 799.214 564.628 797.558 565.237 796.898 565.528 C 796.459 561.8 797.692 558.812 799.931 555.826 C 805.961 547.785 815.886 543.654 825.532 542.329 z"/>
<path transform="translate(0,0)" fill="rgb(48,42,53)" d="M 1333.92 411.433 C 1349.95 410.156 1368.9 409.257 1384.58 412.714 L 1384.86 413.466 C 1367.51 415.159 1349.9 414.491 1332.48 415.299 C 1313.53 416.179 1294.72 418.904 1276 421.916 C 1152.41 441.808 1019.47 507.739 910.409 568.901 C 900.393 574.846 888.246 585.72 877.013 588.361 L 876.18 587.481 C 876.845 586.291 876.558 586.635 877.543 585.601 C 886.444 576.262 934.934 550.371 948.296 543.272 C 1061.64 483.064 1204.35 417.894 1333.92 411.433 z"/>
<path transform="translate(0,0)" fill="rgb(255,255,255)" d="M 1696.44 794.405 C 1716.83 792 1736.67 796.141 1754.72 805.759 C 1779.92 819.179 1792 840.306 1800.06 866.978 L 1794.83 863.051 C 1769.89 844.542 1735.98 840.729 1705.95 845.91 C 1637.02 857.8 1556.72 913.963 1493.36 944.579 C 1460.42 960.498 1426.19 972.415 1389.92 977.821 C 1357.55 983.656 1316.7 985.122 1285.35 975.21 C 1296.83 971.594 1307.49 967.641 1317.89 961.5 C 1355.24 939.435 1383.98 898.11 1404.04 860.162 C 1416.15 837.257 1422.4 816.861 1445.82 802.943 C 1458.57 807.83 1470.62 813.695 1483.83 817.48 C 1567.12 841.343 1618.43 801.952 1696.44 794.405 z"/>
<path transform="translate(0,0)" fill="rgb(255,255,255)" d="M 884.665 618.029 L 885.591 617.406 C 897.994 609.222 911.952 602.558 925.045 595.507 C 963.012 575.376 1001.57 556.371 1040.65 538.516 C 1151 488.692 1266.67 446.846 1389.19 445.484 C 1418.43 445.159 1447.14 447.623 1476.19 450.574 C 1509.66 453.974 1543.8 458.456 1576.73 465.378 C 1590.31 468.232 1617.95 472.395 1627.71 481.765 L 1628.64 484.399 C 1624.07 486.412 1612.86 483.042 1607.91 482.168 C 1588.93 478.819 1569.23 477.897 1549.99 477.76 C 1498.13 477.391 1447.1 485.43 1396.26 494.905 C 1314.03 510.23 1234.84 536.907 1157.31 567.909 C 1139.8 575.03 1122.4 582.429 1105.12 590.103 C 1093.65 595.248 1081.81 601.797 1069.72 605.252 C 1052.47 610.182 1032.6 609.907 1014.73 612.443 C 961.76 619.961 908.914 627.833 855.812 634.359 C 862.049 630.401 867.799 626.807 874.941 624.642 C 888.29 620.593 904.017 619.772 917.867 617.816 L 1025.94 602.357 C 1039.38 600.401 1053.89 600.043 1066.98 596.624 C 1076.81 594.057 1085.71 589.194 1094.68 584.559 C 1215.17 528.724 1339.6 486.864 1472.4 474.363 C 1498.24 471.931 1524.59 470.588 1550.53 470.917 C 1562.57 471.069 1587.17 474.422 1597.23 472.493 C 1560.56 468.79 1524.43 465.69 1487.46 467.059 C 1460.22 468.068 1433.08 471.786 1406.21 476.189 C 1295.55 494.319 1195.27 533.868 1093.85 580.037 C 1086.37 583.809 1078.5 588.498 1070.4 590.668 C 1052.87 595.364 1032.96 595.314 1014.92 597.781 C 971.616 603.701 927.585 609.766 884.665 618.029 z"/>
<path transform="translate(0,0)" fill="rgb(255,255,255)" d="M 1206.78 182.379 C 1225.65 180.382 1246.96 187.693 1261.9 199.041 C 1284.15 215.932 1297.89 241.885 1301.38 269.385 C 1304.73 295.77 1297.88 321.915 1281.26 342.835 C 1266.64 361.234 1250.08 367.953 1227.25 370.589 C 1208.43 372.74 1186.92 364.281 1172.08 353.144 C 1150.88 337.235 1137.24 311.076 1133.6 285.053 C 1130 259.243 1135.12 234.974 1151.19 214.199 C 1164.72 196.586 1184.74 185.125 1206.78 182.379 z"/>
<path transform="translate(0,0)" fill="rgb(48,42,53)" d="M 1208.93 198.316 C 1226.01 197.035 1242.96 202.233 1256.38 212.877 C 1274.07 226.652 1285.85 249.736 1288.6 271.812 C 1291.21 292.766 1286.4 317.532 1272.79 334.156 C 1262.4 346.837 1248.54 351.535 1232.86 353.094 C 1215.62 353.499 1201.6 351.841 1187.25 341.719 C 1168.43 328.439 1154.88 307.547 1151.24 284.744 C 1147.89 263.7 1152.07 241.081 1164.82 223.73 C 1175.53 209.143 1191.24 200.935 1208.93 198.316 z"/>
<path transform="translate(0,0)" fill="rgb(255,255,255)" d="M 1212.53 208.246 C 1225.8 206.792 1239.82 212.772 1250.11 220.864 C 1266.81 233.992 1276.65 253.86 1279 274.788 C 1281.03 292.831 1276.75 313.156 1265 327.387 C 1255.32 339.107 1242.97 342.495 1228.49 343.594 C 1215.69 343.376 1203.82 340.061 1193.22 332.753 C 1177.14 321.665 1165.56 302.477 1162.17 283.35 C 1159.08 265.89 1162.72 246.362 1173.28 231.92 C 1183.02 218.602 1196.38 210.967 1212.53 208.246 z"/>
<path transform="translate(0,0)" fill="rgb(255,255,255)" d="M 1398.37 522.431 C 1434.09 545.531 1473.85 604.536 1489.13 644.445 C 1486.24 640.154 1483.35 635.827 1480.09 631.808 C 1474.79 625.282 1468.17 618.596 1459.29 617.934 C 1455.97 617.687 1453.36 618.349 1450.91 620.743 C 1443.73 627.76 1445.84 651.346 1446.67 660.668 C 1448.8 684.656 1470.26 773.27 1488.7 787.245 C 1491.01 788.992 1494.37 789.809 1497.2 789.132 C 1499.83 788.502 1501.75 786.697 1503.04 784.403 C 1510.57 771.04 1504.47 746.156 1500.12 732.464 C 1497.14 723.081 1488.27 698.278 1478.25 694.822 C 1475.88 694.005 1474.06 694.508 1471.98 695.715 C 1466.06 699.136 1463.74 711.215 1461.89 717.226 C 1459.16 703.373 1456.12 689.351 1455.15 675.242 C 1454.18 666.15 1451.18 641.936 1456.99 634.429 C 1458.86 632.009 1459.65 631.979 1462.49 631.44 C 1465.34 632.196 1467.3 633.11 1469.61 634.978 C 1507.8 665.898 1520.06 761.685 1524.37 809.11 C 1505.17 807.572 1487.95 804.382 1470.16 796.834 C 1460.4 775.018 1453.15 751.367 1444.48 729.012 C 1426.8 683.473 1410.39 646.324 1398.86 598.25 C 1393.81 577.198 1386.32 542.076 1398.37 522.431 z"/>
<path transform="translate(0,0)" fill="rgb(255,255,255)" d="M 1483.39 964.742 C 1485.93 964.708 1487.94 966.103 1490.04 967.381 C 1552.05 1005.15 1580.98 1050.14 1597.94 1119.59 C 1580 1116.7 1562.2 1112.23 1544.48 1108.21 C 1457.69 1088.51 1383.79 1060.58 1314.5 1003.17 L 1301.84 993.231 C 1311.81 995.582 1322.9 995.156 1332.44 998.302 C 1344.09 1002.14 1355.7 1010.57 1366.4 1016.66 C 1386.91 1028.34 1408.31 1040.2 1430.32 1048.8 C 1456.49 1059.03 1483.15 1069.6 1509.99 1077.92 C 1534.22 1085.43 1558.95 1090.86 1582.57 1100.3 C 1558.03 1041.84 1517.83 1005.89 1465.48 972.97 C 1471.7 970.64 1477.49 967.777 1483.39 964.742 z"/>
<path transform="translate(0,0)" fill="rgb(255,255,255)" d="M 1377.61 662.24 C 1379.1 662.597 1380.65 663.085 1382.01 663.796 C 1408.29 677.507 1443.84 761.44 1451.3 789.904 C 1436 790.18 1428.36 796.055 1417.95 806.64 C 1410.97 815.334 1405.5 824.979 1399.96 834.628 C 1394.1 800.144 1385.45 766.62 1377.31 732.639 C 1372.13 711 1365.15 682.512 1377.61 662.24 z"/>
<path transform="translate(0,0)" fill="rgb(255,255,255)" d="M 1439.8 1330.73 C 1439.9 1330.74 1440.01 1330.74 1440.11 1330.75 C 1449.58 1331.86 1456.3 1338.48 1462.01 1345.64 C 1474.7 1361.58 1486.67 1386.11 1483.67 1407.07 C 1482.77 1413.35 1480.44 1416.65 1475.53 1420.49 C 1474.19 1420.67 1472.85 1420.87 1471.5 1420.85 C 1464.11 1420.72 1456.66 1414.44 1452.09 1409.18 C 1438.92 1394.04 1429.05 1366.77 1431.18 1346.66 C 1431.96 1339.27 1434.06 1335.37 1439.8 1330.73 z"/>
<path transform="translate(0,0)" fill="rgb(255,255,255)" d="M 1512.43 1217.78 C 1513.23 1221.35 1513.03 1225.56 1513.43 1229.25 C 1514.62 1240.37 1516.14 1251.21 1519.35 1261.94 C 1504.29 1274.2 1488.11 1288.95 1470.02 1296.39 C 1461.52 1295.25 1453.03 1293.59 1444.57 1292.18 L 1431.5 1291.29 C 1449.16 1278.12 1467.27 1264.19 1483.17 1248.94 C 1493.4 1239.14 1502.83 1228.2 1512.43 1217.78 z"/>
<path transform="translate(0,0)" fill="rgb(255,255,255)" d="M 1526.65 1268.83 C 1532.5 1275.68 1536.83 1286.44 1541.12 1294.45 C 1546.14 1303.83 1551.42 1313.07 1556.96 1322.16 C 1548.44 1318.31 1539.53 1315.23 1530.79 1311.93 C 1517.12 1307.37 1503.32 1303.45 1489.45 1299.56 C 1502.96 1290.47 1515.27 1280.48 1526.65 1268.83 z"/>
<path transform="translate(0,0)" fill="rgb(255,255,255)" d="M 1409.17 1301.25 C 1423.41 1301.62 1438.7 1304.35 1452.5 1307.59 C 1434.68 1314.94 1417.08 1318.13 1398.11 1320.73 C 1382.65 1322.28 1367.25 1322.42 1351.73 1322.08 C 1369.34 1313.86 1390.01 1304.52 1409.17 1301.25 z"/>
<path transform="translate(0,0)" fill="rgb(255,255,255)" d="M 1683.56 865.214 L 1685.38 865.443 C 1652.06 878.253 1621.41 895.609 1590.18 912.617 C 1558.99 929.602 1527.71 946.241 1495.35 960.911 L 1493.45 960.464 C 1496.88 956.378 1617.64 892.65 1631.64 886.051 C 1648.51 878.105 1665.75 870.735 1683.56 865.214 z"/>
<path transform="translate(0,0)" fill="rgb(255,255,255)" d="M 1124.97 300.172 L 1128.44 299.992 C 1131.3 302.558 1132.17 306.921 1133.37 310.477 C 1128.48 312.681 1122.28 314.631 1118.64 318.621 L 1119.86 319.17 C 1125.48 318.342 1130.36 316.112 1135.52 313.881 L 1140.01 323.668 C 1133.96 326.846 1127.62 329.506 1121.38 332.286 C 1116 323.72 1112.05 314.335 1109.68 304.5 L 1124.97 300.172 z"/>
<path transform="translate(0,0)" fill="rgb(255,255,255)" d="M 1115.91 241.167 C 1120.15 239.841 1123.93 238.493 1128.44 238.605 C 1127.22 239.698 1126.06 240.491 1124.65 241.306 L 1126.56 244.518 C 1126.02 246.545 1125.97 246.927 1124.02 248.016 C 1120.78 249.821 1116.79 249.332 1114.27 252.316 C 1118.13 252.844 1122.21 251.041 1125.87 249.903 C 1125.4 253.469 1124.69 257.068 1125.29 260.649 C 1121.32 264.183 1112.69 266.202 1107.61 268.711 L 1110.35 257.121 L 1112.29 250.48 L 1115.91 241.167 z"/>
<path transform="translate(0,0)" fill="rgb(255,255,255)" d="M 1420.18 513.142 C 1421.93 512.976 1422.95 513.088 1424.62 513.664 C 1429.83 519.786 1454.3 550.866 1454.7 556.556 L 1452.51 554.332 C 1444.5 545.511 1436.53 536.566 1427.62 528.628 C 1423.02 524.523 1415.58 520.564 1411.9 516.005 C 1414.4 514.147 1417.19 513.845 1420.18 513.142 z"/>
<path transform="translate(0,0)" fill="rgb(255,255,255)" d="M 1473.82 695.446 C 1479.37 698.059 1483.88 704.354 1485.86 710.077 C 1488.05 716.42 1487.9 719.713 1485.04 725.714 C 1483.8 725.289 1482.56 724.889 1481.4 724.276 C 1476.89 721.911 1473.51 716.198 1472.25 711.41 C 1470.66 705.394 1470.8 700.871 1473.82 695.446 z"/>
<path transform="translate(0,0)" fill="rgb(255,255,255)" d="M 1124.63 284.221 C 1126.94 286.511 1127.8 292.875 1128.72 296.146 L 1110.32 302.118 C 1107.93 299.693 1107.83 291.953 1107.39 288.548 C 1113.18 287.262 1118.9 285.732 1124.63 284.221 z"/>
<path transform="translate(0,0)" fill="rgb(255,255,255)" d="M 1122.22 264.532 C 1125.46 267.737 1124.93 276.846 1125.23 281.367 C 1119.05 282.521 1112.87 283.59 1106.81 285.249 C 1106.64 280.571 1105.63 275.285 1108.91 271.586 C 1113.22 270.878 1117.16 269.675 1121.3 268.347 L 1118.41 267.952 L 1118.1 267.142 L 1122.22 264.532 z"/>
<path transform="translate(0,0)" fill="rgb(255,255,255)" d="M 1148.84 338.977 C 1148.91 339.016 1148.98 339.047 1149.04 339.093 C 1151.69 341.198 1155.98 344.199 1156.48 347.581 C 1153.65 350.503 1146.23 352.072 1142.33 354.025 L 1141.37 354.527 C 1137.81 353.04 1134.93 349.049 1132.27 346.245 C 1137.72 343.478 1143.13 341.13 1148.84 338.977 z"/>
<path transform="translate(0,0)" fill="rgb(255,255,255)" d="M 1182.79 365.101 C 1192.67 368.779 1203.14 370.691 1212.93 374.53 L 1211.75 375.37 C 1202.62 375.915 1189.04 376.751 1180.45 373.482 C 1179.74 370.476 1181.56 367.77 1182.79 365.101 z"/>
<path transform="translate(0,0)" fill="rgb(255,255,255)" d="M 1141.64 327.985 C 1144.01 330.047 1145.64 333.034 1147.37 335.659 C 1141.58 337.711 1136.16 340.521 1130.66 343.254 L 1124.31 336.257 C 1129.98 333.007 1135.57 330.392 1141.64 327.985 z"/>
<path transform="translate(0,0)" fill="rgb(255,255,255)" d="M 1173.05 360.995 C 1174.03 361.107 1175.44 361.23 1176.35 361.53 C 1179.2 362.471 1179.55 363.144 1180.62 365.683 C 1180.06 367.983 1179.49 370.066 1177.26 371.366 C 1173.98 373.279 1171.73 372.041 1168.3 371.251 C 1164.37 369.926 1160.49 368.4 1156.6 366.958 C 1162 364.799 1167.58 362.97 1173.05 360.995 z"/>
<path transform="translate(0,0)" fill="rgb(255,255,255)" d="M 1156.93 354.058 C 1160.34 353.712 1163.42 353.765 1166.4 355.604 L 1166.45 357.246 C 1163.94 360.421 1159.96 361.217 1156.26 362.465 C 1155.09 362.714 1153.78 363.07 1152.56 363.065 C 1150.21 363.054 1148.77 362.717 1147.06 361.064 L 1147.3 358.915 C 1149.68 355.765 1153.31 355.159 1156.93 354.058 z"/>
<path transform="translate(0,0)" fill="rgb(255,255,255)" d="M 1132.8 225.156 C 1132.86 226.52 1132.96 226.127 1132.44 227.626 C 1129.94 234.778 1122.94 236.804 1116.61 239.638 C 1116.36 234.995 1120.62 231.337 1123.5 228.089 L 1132.8 225.156 z"/>
</svg>